<?xml version="1.0" standalone="no"?>
<!DOCTYPE svg PUBLIC "-//W3C//DTD SVG 20010904//EN"
 "http://www.w3.org/TR/2001/REC-SVG-20010904/DTD/svg10.dtd">
<svg version="1.0" xmlns="http://www.w3.org/2000/svg"
 width="82.000000pt" height="82.000000pt" viewBox="0 0 82.000000 82.000000"
 preserveAspectRatio="xMidYMid meet">
<metadata>
Created by potrace 1.14, written by Peter Selinger 2001-2017
</metadata>
<g transform="translate(0.000000,82.000000) scale(0.100000,-0.100000)"
fill="#000000" stroke="none">
<path d="M272 738 c-32 -32 1 -83 46 -71 30 8 52 -14 52 -51 0 -24 -8 -36 -35
-54 -19 -12 -45 -38 -57 -57 -18 -27 -30 -35 -54 -35 -39 0 -57 20 -48 54 8
32 -10 56 -42 56 -30 0 -49 -32 -34 -60 6 -11 19 -20 29 -20 10 0 26 -11 35
-25 12 -19 25 -25 51 -25 19 0 35 -4 35 -10 0 -5 -13 -10 -30 -10 -16 0 -30
-4 -30 -10 0 -5 14 -10 30 -10 17 0 30 -4 30 -10 0 -5 -15 -10 -34 -10 -25 0
-40 -7 -54 -25 -11 -14 -27 -25 -36 -25 -8 0 -20 -9 -26 -20 -15 -28 4 -60 34
-60 32 0 50 24 42 56 -9 34 9 54 49 54 27 0 37 -6 54 -35 11 -20 36 -45 55
-56 30 -18 35 -26 34 -55 -1 -39 -22 -56 -56 -47 -12 3 -29 0 -37 -7 -20 -17
-19 -57 3 -68 23 -13 62 3 62 24 0 9 12 27 26 41 17 16 24 31 22 50 -2 15 3
28 10 30 8 3 12 -6 12 -27 0 -18 4 -29 10 -25 6 3 10 20 10 36 0 18 4 28 10
24 6 -3 10 -22 10 -41 0 -23 6 -38 20 -46 11 -7 20 -18 20 -25 0 -7 9 -22 19
-32 25 -25 59 -17 67 15 9 34 -13 57 -48 50 -44 -9 -58 2 -58 44 0 32 5 41 40
64 22 14 46 39 55 56 12 24 22 30 48 30 43 0 57 -15 50 -54 -6 -39 15 -61 52
-52 20 5 25 13 25 36 0 24 -6 33 -27 41 -15 5 -33 19 -40 29 -10 14 -26 20
-54 20 -21 0 -39 5 -39 10 0 6 14 10 30 10 17 0 30 5 30 10 0 6 -11 10 -24 10
-32 0 -45 20 -14 21 43 1 62 8 78 28 8 10 24 21 35 23 27 4 34 57 10 74 -13
10 -23 10 -42 1 -20 -9 -24 -16 -20 -41 7 -47 -7 -66 -48 -64 -28 1 -39 8 -55
35 -11 18 -35 43 -55 54 -30 18 -35 26 -35 59 0 42 21 57 59 45 23 -7 51 18
51 46 0 11 -11 24 -25 31 -20 9 -28 8 -44 -6 -11 -10 -18 -23 -15 -30 3 -7 -7
-18 -21 -26 -20 -11 -25 -21 -25 -52 0 -21 -4 -38 -10 -38 -5 0 -10 11 -10 24
0 14 -4 28 -10 31 -6 4 -10 -7 -10 -24 0 -38 -20 -41 -21 -3 -1 15 -1 30 0 34
0 4 -10 15 -24 24 -14 9 -25 25 -25 35 0 10 -9 23 -19 29 -25 13 -34 13 -49
-2z m45 -24 c8 -21 -13 -42 -28 -27 -13 13 -5 43 11 43 6 0 13 -7 17 -16z
m240 0 c9 -23 -13 -40 -32 -24 -12 10 -13 16 -4 26 15 18 28 18 36 -2z m-84
-158 c149 -63 102 -281 -61 -278 -71 1 -129 55 -139 129 -7 56 26 116 81 143
48 24 75 25 119 6z m-313 -11 c0 -9 -7 -18 -16 -22 -18 -7 -39 11 -30 26 11
17 46 13 46 -4z m563 1 c7 -18 -1 -26 -25 -26 -11 0 -18 7 -18 20 0 23 35 28
43 6z m-563 -241 c0 -9 -7 -18 -16 -22 -18 -7 -39 11 -30 26 11 17 46 13 46
-4z m560 -6 c0 -14 -5 -19 -17 -17 -26 5 -29 38 -4 38 15 0 21 -6 21 -21z
m-401 -153 c10 -12 8 -17 -7 -25 -22 -12 -32 -6 -32 21 0 21 23 24 39 4z m238
-2 c7 -20 -17 -37 -34 -23 -15 13 -6 39 13 39 8 0 17 -7 21 -16z"/>
<path d="M380 530 c-7 -4 -12 -19 -12 -34 0 -22 -5 -26 -28 -26 -33 0 -37 -7
-32 -61 4 -36 7 -39 33 -39 16 0 28 -3 28 -7 -1 -5 -1 -18 0 -31 1 -21 5 -23
49 -20 43 3 47 5 50 30 3 21 9 27 30 30 25 3 27 7 30 51 3 46 3 47 -27 47 -28
0 -31 3 -31 30 0 24 -4 30 -22 31 -13 0 -30 2 -39 4 -9 1 -22 -1 -29 -5z m72
-49 c2 -20 9 -27 31 -29 23 -3 27 -8 27 -33 0 -26 -3 -29 -30 -29 -27 0 -30
-3 -30 -30 0 -26 -3 -30 -29 -30 -24 0 -30 5 -34 30 -5 24 -12 30 -32 30 -14
0 -26 6 -26 13 -1 6 -2 19 -3 27 0 9 10 17 29 20 23 4 31 11 34 30 4 29 16 39
42 33 10 -3 19 -16 21 -32z"/>
</g>
</svg>
